<svg width="21" height="14" viewBox="0 0 21 14" fill="none" xmlns="http://www.w3.org/2000/svg">
<path d="M19.8926 3.57679C19.4587 2.6446 18.8107 1.86546 18.0183 1.3233C17.226 0.781139 16.3193 0.496498 15.396 0.500033H1.15347C1.05699 0.500957 0.962891 0.534383 0.882929 0.596132C0.802967 0.657881 0.740689 0.745215 0.703878 0.84722C0.667067 0.949224 0.657356 1.06137 0.675958 1.16966C0.694559 1.27794 0.740649 1.37755 0.808468 1.45604L3.9118 5.02653C4.04749 5.18244 4.20878 5.30615 4.3864 5.39056C4.56402 5.47496 4.75447 5.51839 4.9468 5.51835H14.9876C15.3311 5.51443 15.6618 5.66673 15.9071 5.94173C16.1524 6.21674 16.2921 6.59193 16.2956 6.98477C16.299 7.3776 16.1658 7.7559 15.9254 8.03645C15.685 8.317 15.3569 8.47681 15.0135 8.48073H8.0918C7.99526 8.48147 7.90104 8.51476 7.82095 8.57644C7.74087 8.63811 7.67846 8.72544 7.64155 8.82748C7.60463 8.92952 7.59485 9.04175 7.61343 9.15012C7.632 9.25849 7.6781 9.35819 7.74597 9.43674L10.8501 13.0082C10.9858 13.1642 11.1471 13.2879 11.3247 13.3724C11.5023 13.4568 11.6928 13.5001 11.8851 13.5H15.016C19.0885 13.5 22.1693 8.51981 19.8926 3.57488" fill="#F7F9EE"/>
</svg>
