<svg width="15" height="15" viewBox="0 0 15 15" fill="none" xmlns="http://www.w3.org/2000/svg">
<path d="M7.50984 0.491211C3.6476 0.491211 0.516846 3.62196 0.516846 7.48363C0.516846 10.4464 2.35901 12.9769 4.96068 13.9948C4.89943 13.4412 4.8446 12.593 4.9846 11.9887C5.11235 11.4421 5.80476 8.51379 5.80476 8.51379C5.80476 8.51379 5.59534 8.09379 5.59534 7.47488C5.59534 6.50479 6.15943 5.77679 6.86001 5.77679C7.45734 5.77679 7.74551 6.22538 7.74551 6.76146C7.74551 7.36171 7.36459 8.25888 7.16684 9.09013C7.00059 9.78604 7.51684 10.353 8.20226 10.353C9.44359 10.353 10.4003 9.04346 10.4003 7.15229C10.4003 5.48338 9.19684 4.31204 7.47893 4.31204C5.48976 4.31204 4.32368 5.80654 4.32368 7.34479C4.32368 7.94738 4.55351 8.59488 4.84226 8.94371C4.90001 9.01371 4.9076 9.07496 4.89185 9.14496C4.83934 9.36371 4.72093 9.84438 4.69701 9.94004C4.6661 10.0713 4.59668 10.0981 4.4631 10.0363C3.59101 9.63379 3.04385 8.35746 3.04385 7.32613C3.04385 5.12346 4.64684 3.09579 7.66384 3.09579C10.0893 3.09579 11.9758 4.82654 11.9758 7.13421C11.9758 9.54629 10.4551 11.487 8.33993 11.487C7.63176 11.487 6.96676 11.1201 6.73109 10.6826L6.29418 12.344C6.13726 12.9535 5.70851 13.716 5.42035 14.1791C6.07543 14.3804 6.76551 14.4912 7.49118 14.4912C11.3453 14.4912 14.4824 11.3616 14.4824 7.49879C14.4824 3.63538 11.3453 0.506378 7.49118 0.506378L7.50984 0.491211Z" fill="#F7F9EE"/>
</svg>
