<svg width="14" height="15" viewBox="0 0 14 15" fill="none" xmlns="http://www.w3.org/2000/svg">
<path d="M7.17625 0.5C3.58104 0.5 0.666748 3.63075 0.666748 7.49242C0.666748 10.4552 2.38155 12.9857 4.80333 14.0036C4.74632 13.45 4.69528 12.6018 4.8256 11.9975C4.94451 11.4509 5.58906 8.52258 5.58906 8.52258C5.58906 8.52258 5.39412 8.10258 5.39412 7.48367C5.39412 6.51358 5.9192 5.78558 6.57135 5.78558C7.12738 5.78558 7.39562 6.23417 7.39562 6.77025C7.39562 7.3705 7.04104 8.26767 6.85697 9.09892C6.70221 9.79483 7.18277 10.3618 7.82079 10.3618C8.9763 10.3618 9.86682 9.05225 9.86682 7.16108C9.86682 5.49217 8.74661 4.32083 7.14747 4.32083C5.29584 4.32083 4.21038 5.81533 4.21038 7.35358C4.21038 7.95617 4.42432 8.60367 4.6931 8.9525C4.74686 9.0225 4.75392 9.08375 4.73926 9.15375C4.69039 9.3725 4.58016 9.85317 4.5579 9.94883C4.52912 10.0801 4.4645 10.1069 4.34015 10.0451C3.52837 9.64258 3.01903 8.36625 3.01903 7.33492C3.01903 5.13225 4.5112 3.10458 7.3196 3.10458C9.5774 3.10458 11.3335 4.83533 11.3335 7.143C11.3335 9.55508 9.91786 11.4958 7.94894 11.4958C7.28974 11.4958 6.67072 11.1289 6.45134 10.6914L6.04463 12.3527C5.89857 12.9623 5.49946 13.7247 5.23122 14.1879C5.84101 14.3892 6.48338 14.5 7.15887 14.5C10.7465 14.5 13.6667 11.3704 13.6667 7.50758C13.6667 3.64417 10.7465 0.515167 7.15887 0.515167L7.17625 0.5Z" fill="#F7F9EE"/>
</svg>
